<?xml version="1.0" encoding="UTF-8"?>
<svg xmlns="http://www.w3.org/2000/svg" xmlns:xlink="http://www.w3.org/1999/xlink" width="375pt" height="374.999991pt" viewBox="0 0 375 374.999991" version="1.2">
<defs>
<filter id="alpha" filterUnits="objectBoundingBox" x="0%" y="0%" width="100%" height="100%">
  <feColorMatrix type="matrix" in="SourceGraphic" values="0 0 0 0 1 0 0 0 0 1 0 0 0 0 1 0 0 0 1 0"/>
</filter>
<mask id="mask0">
  <g filter="url(#alpha)">
<rect x="0" y="0" width="375" height="374.999991" style="fill:rgb(0%,0%,0%);fill-opacity:0.298;stroke:none;"/>
  </g>
</mask>
<clipPath id="clip2">
  <path d="M 0.210938 0.210938 L 348.960938 0.210938 L 348.960938 348.960938 L 0.210938 348.960938 Z M 0.210938 0.210938 "/>
</clipPath>
<clipPath id="clip1">
  <rect x="0" y="0" width="350" height="350"/>
</clipPath>
<g id="surface5" clip-path="url(#clip1)">
<g clip-path="url(#clip2)" clip-rule="nonzero">
<path style=" stroke:none;fill-rule:nonzero;fill:rgb(88.238525%,94.898987%,99.609375%);fill-opacity:1;" d="M 174.589844 0.210938 C 78.4375 0.210938 0.210938 78.4375 0.210938 174.589844 C 0.210938 270.734375 78.4375 348.960938 174.589844 348.960938 C 270.738281 348.960938 348.960938 270.734375 348.960938 174.589844 C 348.960938 78.4375 270.738281 0.210938 174.589844 0.210938 Z M 180.039062 94.3125 C 202.375 93.722656 227.375 91.230469 254.410156 85.683594 C 264.128906 109.304688 269.558594 137.378906 270.417969 169.117188 L 180.039062 169.117188 Z M 180.039062 83.382812 L 180.039062 11.742188 C 186.570312 13.632812 204.628906 20.121094 222.882812 37.847656 C 233.625 48.28125 242.617188 60.898438 249.796875 75.464844 C 224.480469 80.511719 201.039062 82.816406 180.039062 83.382812 Z M 169.136719 83.527344 C 149.910156 83.519531 133.003906 82.113281 118.910156 80.191406 C 111.695312 79.210938 104.957031 78.070312 98.710938 76.84375 C 105.894531 61.917969 114.941406 48.992188 125.800781 38.332031 C 144.09375 20.363281 162.503906 13.699219 169.136719 11.753906 Z M 116.9375 90.96875 C 131.574219 92.976562 149.140625 94.460938 169.136719 94.46875 L 169.136719 169.117188 L 78.757812 169.117188 C 79.597656 138.019531 84.824219 110.429688 94.183594 87.101562 C 101.144531 88.519531 108.734375 89.839844 116.9375 90.96875 Z M 67.855469 169.117188 L 11.257812 169.117188 C 12.449219 133.007812 25.410156 99.824219 46.421875 73.292969 C 52.46875 75.742188 65.113281 80.398438 83.40625 84.738281 C 72.316406 113.265625 68.53125 143.628906 67.855469 169.117188 Z M 67.757812 180.058594 C 68 213.878906 73.648438 240.808594 81.929688 262.164062 C 69.671875 265.0625 57.046875 268.589844 44.089844 272.863281 C 24.453125 246.851562 12.402344 214.816406 11.257812 180.058594 Z M 78.648438 180.058594 L 169.136719 180.058594 L 169.136719 250.699219 C 146.234375 251.300781 120.519531 253.898438 92.691406 259.746094 C 83.644531 237.019531 78.878906 210.238281 78.648438 180.058594 Z M 169.136719 261.640625 L 169.136719 334.90625 C 160.332031 332.195312 143.628906 325.488281 126.980469 310.4375 C 114.796875 299.417969 104.832031 285.839844 97.183594 270 C 123.339844 264.644531 147.53125 262.226562 169.136719 261.640625 Z M 180.039062 261.496094 C 199.265625 261.503906 216.167969 262.914062 230.261719 264.835938 C 238.324219 265.929688 245.792969 267.226562 252.640625 268.621094 C 245 284.855469 234.972656 298.753906 222.652344 310.015625 C 205.945312 325.285156 188.953125 332.121094 180.039062 334.890625 Z M 232.234375 254.054688 C 217.601562 252.046875 200.03125 250.5625 180.039062 250.550781 L 180.039062 180.058594 L 270.527344 180.058594 C 270.300781 209.605469 265.726562 235.914062 257.042969 258.339844 C 249.527344 256.765625 241.25 255.296875 232.234375 254.054688 Z M 281.421875 180.058594 L 337.917969 180.058594 C 336.769531 214.757812 324.761719 246.753906 305.175781 272.746094 C 300.824219 270.867188 287.894531 265.675781 267.785156 260.777344 C 278.058594 233.414062 281.234375 204.523438 281.421875 180.058594 Z M 281.316406 169.117188 C 280.632812 143.210938 276.734375 112.261719 265.214844 83.328125 C 277.292969 80.53125 289.738281 77.113281 302.5 72.984375 C 323.660156 99.566406 336.722656 132.863281 337.917969 169.117188 Z M 294.785156 63.976562 C 283.160156 67.609375 271.816406 70.636719 260.796875 73.132812 C 253.414062 57.5 243.5625 42.734375 230.480469 30.027344 C 224.503906 24.214844 218.539062 19.511719 212.902344 15.699219 C 244.867188 23.410156 273.199219 40.539062 294.785156 63.976562 Z M 136.273438 15.699219 C 130.640625 19.511719 124.671875 24.214844 118.695312 30.027344 C 105.234375 43.097656 95.203125 58.355469 87.753906 74.492188 C 72.214844 70.890625 60.691406 67 53.9375 64.460938 C 75.578125 40.769531 104.085938 23.460938 136.273438 15.699219 Z M 51.488281 281.972656 C 63.382812 278.167969 74.988281 275 86.257812 272.382812 C 96.042969 293.453125 108.347656 308.285156 119.667969 318.523438 C 127.277344 325.402344 134.882812 330.6875 141.898438 334.734375 C 106.160156 327.453125 74.628906 308.460938 51.488281 281.972656 Z M 207.277344 334.734375 C 214.289062 330.6875 221.902344 325.402344 229.507812 318.523438 C 244.769531 304.722656 255.746094 288.355469 263.5625 271.027344 C 280.335938 275.046875 292.152344 279.316406 297.988281 281.628906 C 274.820312 308.304688 243.167969 327.421875 207.277344 334.734375 Z M 207.277344 334.734375 "/>
</g>
</g>
<clipPath id="clip3">
  <path d="M 49.550781 41.90625 L 325.550781 41.90625 L 325.550781 332.90625 L 49.550781 332.90625 Z M 49.550781 41.90625 "/>
</clipPath>
</defs>
<g id="surface1">
<path style=" stroke:none;fill-rule:nonzero;fill:rgb(23.919678%,34.118652%,49.01886%);fill-opacity:1;" d="M 187.5 0 C 184.429688 0 181.363281 0.0742188 178.300781 0.226562 C 175.234375 0.375 172.175781 0.601562 169.121094 0.902344 C 166.066406 1.203125 163.023438 1.578125 159.988281 2.03125 C 156.953125 2.480469 153.929688 3.003906 150.921875 3.601562 C 147.910156 4.203125 144.917969 4.875 141.941406 5.617188 C 138.964844 6.363281 136.007812 7.183594 133.070312 8.074219 C 130.136719 8.964844 127.222656 9.925781 124.332031 10.960938 C 121.445312 11.996094 118.582031 13.097656 115.746094 14.273438 C 112.910156 15.445312 110.105469 16.691406 107.332031 18.003906 C 104.558594 19.3125 101.820312 20.691406 99.113281 22.140625 C 96.40625 23.585938 93.738281 25.097656 91.105469 26.675781 C 88.472656 28.253906 85.882812 29.894531 83.332031 31.597656 C 80.777344 33.304688 78.269531 35.070312 75.804688 36.898438 C 73.339844 38.726562 70.921875 40.613281 68.550781 42.558594 C 66.179688 44.507812 63.855469 46.511719 61.582031 48.570312 C 59.308594 50.632812 57.085938 52.746094 54.917969 54.917969 C 52.746094 57.085938 50.632812 59.308594 48.570312 61.582031 C 46.511719 63.855469 44.507812 66.179688 42.558594 68.550781 C 40.613281 70.921875 38.726562 73.339844 36.898438 75.804688 C 35.070312 78.269531 33.304688 80.777344 31.597656 83.332031 C 29.894531 85.882812 28.253906 88.472656 26.675781 91.105469 C 25.097656 93.738281 23.585938 96.40625 22.140625 99.113281 C 20.691406 101.820312 19.3125 104.558594 18.003906 107.332031 C 16.691406 110.105469 15.445312 112.910156 14.273438 115.746094 C 13.097656 118.582031 11.996094 121.445312 10.960938 124.332031 C 9.925781 127.222656 8.964844 130.136719 8.074219 133.070312 C 7.183594 136.007812 6.363281 138.964844 5.621094 141.941406 C 4.875 144.917969 4.203125 147.910156 3.601562 150.921875 C 3.003906 153.929688 2.480469 156.953125 2.03125 159.988281 C 1.578125 163.023438 1.203125 166.066406 0.902344 169.121094 C 0.601562 172.175781 0.375 175.234375 0.226562 178.300781 C 0.0742188 181.363281 0 184.429688 0 187.5 C 0 190.570312 0.0742188 193.636719 0.226562 196.699219 C 0.375 199.765625 0.601562 202.824219 0.902344 205.878906 C 1.203125 208.933594 1.578125 211.976562 2.03125 215.011719 C 2.480469 218.046875 3.003906 221.070312 3.601562 224.078125 C 4.203125 227.089844 4.875 230.082031 5.621094 233.058594 C 6.363281 236.035156 7.183594 238.992188 8.074219 241.929688 C 8.964844 244.863281 9.925781 247.777344 10.960938 250.667969 C 11.996094 253.554688 13.097656 256.417969 14.273438 259.253906 C 15.445312 262.089844 16.691406 264.890625 18.003906 267.667969 C 19.3125 270.441406 20.691406 273.179688 22.140625 275.886719 C 23.585938 278.59375 25.097656 281.261719 26.675781 283.894531 C 28.253906 286.527344 29.894531 289.117188 31.597656 291.667969 C 33.304688 294.222656 35.070312 296.730469 36.898438 299.195312 C 38.726562 301.660156 40.613281 304.078125 42.558594 306.449219 C 44.507812 308.820312 46.511719 311.144531 48.570312 313.417969 C 50.632812 315.691406 52.746094 317.914062 54.917969 320.082031 C 57.085938 322.253906 59.308594 324.367188 61.582031 326.429688 C 63.855469 328.488281 66.179688 330.492188 68.550781 332.4375 C 70.921875 334.386719 73.339844 336.273438 75.804688 338.101562 C 78.269531 339.929688 80.777344 341.695312 83.332031 343.402344 C 85.882812 345.105469 88.472656 346.746094 91.105469 348.324219 C 93.738281 349.902344 96.40625 351.414062 99.113281 352.859375 C 101.820312 354.308594 104.558594 355.6875 107.332031 356.996094 C 110.105469 358.308594 112.910156 359.554688 115.746094 360.726562 C 118.582031 361.902344 121.445312 363.003906 124.332031 364.039062 C 127.222656 365.074219 130.136719 366.035156 133.070312 366.925781 C 136.007812 367.816406 138.964844 368.636719 141.941406 369.378906 C 144.917969 370.125 147.910156 370.796875 150.921875 371.398438 C 153.929688 371.996094 156.953125 372.519531 159.988281 372.96875 C 163.023438 373.421875 166.066406 373.796875 169.121094 374.097656 C 172.175781 374.398438 175.234375 374.625 178.300781 374.773438 C 181.363281 374.925781 184.429688 375 187.5 375 C 190.570312 375 193.636719 374.925781 196.699219 374.773438 C 199.765625 374.625 202.824219 374.398438 205.878906 374.097656 C 208.933594 373.796875 211.976562 373.421875 215.011719 372.96875 C 218.046875 372.519531 221.070312 371.996094 224.078125 371.398438 C 227.089844 370.796875 230.082031 370.125 233.058594 369.378906 C 236.035156 368.636719 238.992188 367.816406 241.929688 366.925781 C 244.863281 366.035156 247.777344 365.074219 250.667969 364.039062 C 253.554688 363.003906 256.417969 361.902344 259.253906 360.726562 C 262.089844 359.554688 264.890625 358.308594 267.667969 356.996094 C 270.441406 355.6875 273.179688 354.308594 275.886719 352.859375 C 278.59375 351.414062 281.261719 349.902344 283.894531 348.324219 C 286.527344 346.746094 289.117188 345.105469 291.667969 343.402344 C 294.222656 341.695312 296.730469 339.929688 299.195312 338.101562 C 301.660156 336.273438 304.078125 334.386719 306.449219 332.4375 C 308.820312 330.492188 311.144531 328.488281 313.417969 326.429688 C 315.691406 324.367188 317.914062 322.253906 320.082031 320.082031 C 322.253906 317.914062 324.367188 315.691406 326.429688 313.417969 C 328.488281 311.144531 330.492188 308.820312 332.4375 306.449219 C 334.386719 304.078125 336.273438 301.660156 338.101562 299.195312 C 339.929688 296.730469 341.695312 294.222656 343.402344 291.667969 C 345.105469 289.117188 346.746094 286.527344 348.324219 283.894531 C 349.902344 281.261719 351.414062 278.59375 352.859375 275.886719 C 354.308594 273.179688 355.6875 270.441406 356.996094 267.667969 C 358.308594 264.890625 359.554688 262.089844 360.726562 259.253906 C 361.902344 256.417969 363.003906 253.554688 364.039062 250.667969 C 365.074219 247.777344 366.035156 244.863281 366.925781 241.929688 C 367.816406 238.992188 368.636719 236.035156 369.378906 233.058594 C 370.125 230.082031 370.796875 227.089844 371.398438 224.078125 C 371.996094 221.070312 372.519531 218.046875 372.96875 215.011719 C 373.421875 211.976562 373.796875 208.933594 374.097656 205.878906 C 374.398438 202.824219 374.625 199.765625 374.773438 196.699219 C 374.925781 193.636719 375 190.570312 375 187.5 C 375 184.429688 374.925781 181.363281 374.773438 178.300781 C 374.625 175.234375 374.398438 172.175781 374.097656 169.121094 C 373.796875 166.066406 373.421875 163.023438 372.96875 159.988281 C 372.519531 156.953125 371.996094 153.929688 371.398438 150.921875 C 370.796875 147.910156 370.125 144.917969 369.378906 141.941406 C 368.636719 138.964844 367.816406 136.007812 366.925781 133.070312 C 366.035156 130.136719 365.074219 127.222656 364.039062 124.332031 C 363.003906 121.445312 361.902344 118.582031 360.726562 115.746094 C 359.554688 112.910156 358.308594 110.105469 356.996094 107.332031 C 355.6875 104.558594 354.308594 101.820312 352.859375 99.113281 C 351.414062 96.40625 349.902344 93.738281 348.324219 91.105469 C 346.746094 88.472656 345.105469 85.882812 343.402344 83.332031 C 341.695312 80.777344 339.929688 78.269531 338.101562 75.804688 C 336.273438 73.339844 334.386719 70.921875 332.4375 68.550781 C 330.492188 66.179688 328.488281 63.855469 326.429688 61.582031 C 324.367188 59.308594 322.253906 57.085938 320.082031 54.917969 C 317.914062 52.746094 315.691406 50.632812 313.417969 48.570312 C 311.144531 46.511719 308.820312 44.507812 306.449219 42.558594 C 304.078125 40.613281 301.660156 38.726562 299.195312 36.898438 C 296.730469 35.070312 294.222656 33.304688 291.667969 31.597656 C 289.117188 29.894531 286.527344 28.253906 283.894531 26.675781 C 281.261719 25.097656 278.59375 23.585938 275.886719 22.140625 C 273.179688 20.691406 270.441406 19.3125 267.667969 18.003906 C 264.890625 16.691406 262.089844 15.445312 259.253906 14.273438 C 256.417969 13.097656 253.554688 11.996094 250.667969 10.960938 C 247.777344 9.925781 244.863281 8.964844 241.929688 8.074219 C 238.992188 7.183594 236.035156 6.363281 233.058594 5.617188 C 230.082031 4.875 227.089844 4.203125 224.078125 3.601562 C 221.070312 3.003906 218.046875 2.480469 215.011719 2.03125 C 211.976562 1.578125 208.933594 1.203125 205.878906 0.902344 C 202.824219 0.601562 199.765625 0.375 196.699219 0.226562 C 193.636719 0.0742188 190.570312 0 187.5 0 Z M 187.5 0 "/>
<use xlink:href="#surface5" transform="matrix(1,0,0,1,13,13)" mask="url(#mask0)"/>
<g clip-path="url(#clip3)" clip-rule="nonzero">
<path style=" stroke:none;fill-rule:nonzero;fill:rgb(100%,100%,100%);fill-opacity:1;" d="M 187.503906 65.917969 C 193.652344 65.917969 198.65625 70.914062 198.65625 77.058594 C 198.65625 83.199219 193.652344 88.203125 187.503906 88.203125 C 181.355469 88.203125 176.355469 83.199219 176.355469 77.058594 C 176.355469 70.914062 181.355469 65.917969 187.503906 65.917969 Z M 325.1875 245.550781 L 294.296875 192.105469 L 278.855469 218.828125 L 263.410156 245.550781 L 276.839844 245.550781 C 265.132812 278.738281 235.46875 303.480469 199.511719 308.050781 L 199.511719 155.519531 L 234.472656 155.519531 L 234.472656 131.53125 L 199.511719 131.53125 L 199.511719 110.039062 C 213.003906 105.121094 222.671875 92.214844 222.671875 77.058594 C 222.671875 57.6875 206.894531 41.925781 187.503906 41.925781 C 168.113281 41.925781 152.335938 57.6875 152.335938 77.058594 C 152.335938 92.214844 162.007812 105.121094 175.496094 110.039062 L 175.496094 131.53125 L 139.921875 131.53125 L 140.082031 155.519531 L 175.496094 155.519531 L 175.496094 308.050781 C 139.542969 303.480469 109.878906 278.738281 98.167969 245.550781 L 111.597656 245.550781 L 96.15625 218.828125 L 80.710938 192.105469 L 65.269531 218.828125 L 49.820312 245.550781 L 72.945312 245.550781 C 86.742188 295.824219 132.855469 332.886719 187.503906 332.886719 C 242.152344 332.886719 288.261719 295.824219 302.066406 245.550781 L 325.1875 245.550781 "/>
</g>
</g>
</svg>
